<?xml version="1.0" encoding="utf-8"?>
<!-- Generator: Adobe Illustrator 24.0.0, SVG Export Plug-In . SVG Version: 6.00 Build 0)  -->
<svg version="1.1" xmlns="http://www.w3.org/2000/svg" xmlns:xlink="http://www.w3.org/1999/xlink" x="0px" y="0px"
	 viewBox="0 0 1000 1000" style="enable-background:new 0 0 1000 1000;" xml:space="preserve">
<style type="text/css">
	.st0{display:none;fill:#6C0092;}
	.st1{fill:#FFFFFF;}
	.st2{fill:#6C0092;}
	.st3{fill-rule:evenodd;clip-rule:evenodd;fill:#6C0092;}
	.st4{fill-rule:evenodd;clip-rule:evenodd;fill:#FFFFFF;}
	.st5{fill:#660096;}
</style>
<g id="Layer_2">
	<rect class="st0" width="1000" height="1000"/>
</g>
<g id="Layer_1">
	<g>
		<circle class="st1" cx="500" cy="500" r="500"/>
		<g>
			<g>
				<path class="st2" d="M331.1,713.94c15.58,17.14,32.86,34.77,52.01,52.48c42.07,38.92,83.76,69.59,121.62,93.69
					c41.43-26.75,86.72-61.7,130.81-107.32c12.22-12.64,23.52-25.26,33.98-37.7c-38.61-13.3-98.31-28.82-172.39-28.61
					C426.34,686.67,368.99,701.18,331.1,713.94z"/>
				<path class="st2" d="M893.46,808.54C801.93,925.11,659.71,1000,500,1000c-149.51,0-283.7-65.63-375.31-169.64
					c36.18-24.93,83.38-42.16,132.27-54.05h0.02c37.66-9.16,76.33-15.15,111.77-19.07c1.38-0.15,2.76-0.3,4.13-0.44
					c4.99-0.54,9.92-1.03,14.77-1.48c24.59-2.3,47.1-3.63,65.95-4.37c1.77-0.07,3.5-0.13,5.21-0.2c1.09-0.04,2.19-0.07,3.25-0.11
					c29.85-0.99,48.59-0.5,48.59-0.5c11.81,0.3,23.58,0.6,35.26,0.92c1.26,0.04,2.52,0.07,3.77,0.11c1.59,0.04,3.16,0.09,4.74,0.13
					c22.51,0.65,44.7,1.38,66.42,2.37c4.42,0.21,8.82,0.41,13.2,0.64c0.15,0.01,0.31,0.02,0.48,0.03
					c41.45,2.12,80.99,5.28,117.44,10.6C807.81,773.09,856.39,786.3,893.46,808.54z"/>
				<path class="st1" d="M638.8,887.64h-273.3c2.17-51.71,3.39-105.59,3.37-161.49c-0.01-55.29-1.22-108.6-3.37-159.79
					c91.1,0,182.2,0,273.3,0c-2.7,49.18-4.31,100.96-4.41,155.14C634.29,779.71,635.92,835.18,638.8,887.64z"/>
				<path class="st2" d="M331.12,713.94c-24.75,20.75-49.5,41.51-74.25,62.26c47.95,59.43,95.9,118.87,143.85,178.3
					c68.86,0.55,137.72,1.1,206.57,1.65c48.85-63.36,97.7-126.73,146.54-190.09c-28.16-17.01-56.33-34.02-84.49-51.02
					c-14.7,15.3-43.3,41.03-86.84,56.85c-69.36,25.21-129.56,8.2-148.73,2.48C383.07,759.25,348.99,731.23,331.12,713.94z"/>
				<path class="st2" d="M491.77,784.85l-90.63,111.98c-48.06-40.18-96.13-80.36-144.19-120.55
					c48.06,48.26,96.13,96.52,144.19,144.78L511.67,785.2L491.77,784.85z"/>
				<path class="st2" d="M516.99,784.95l90.63,111.98c48.66-43.85,97.32-87.7,145.98-131.55
					c-48.66,51.93-97.32,103.86-145.98,155.78L497.09,785.3L516.99,784.95z"/>
				<rect x="492.76" y="788.23" class="st2" width="25.2" height="209.65"/>
			</g>
		</g>
		<g>
			<g>
				<g>
					<path class="st3" d="M380.71,424.78c0,33.83-20.95,61.25-46.78,61.25c-25.84,0-46.78-27.42-46.78-61.25
						c0-33.83,20.95-61.25,46.78-61.25C359.77,363.53,380.71,390.95,380.71,424.78z"/>
					<path class="st3" d="M365.05,424.78c0,22.51-13.93,40.75-31.12,40.75c-17.19,0-31.12-18.24-31.12-40.75
						c0-22.5,13.93-40.75,31.12-40.75C351.12,384.03,365.05,402.28,365.05,424.78z"/>
					<ellipse class="st3" cx="674.62" cy="424.78" rx="46.78" ry="61.25"/>
					<path class="st3" d="M705.75,424.78c0,22.51-13.93,40.75-31.12,40.75c-17.19,0-31.12-18.24-31.12-40.75
						c0-22.5,13.93-40.75,31.12-40.75C691.81,384.03,705.75,402.28,705.75,424.78z"/>
				</g>
				<ellipse class="st4" cx="504.28" cy="407.53" rx="176.35" ry="241.57"/>
			</g>
			<path class="st3" d="M698.92,206.98c-8.87-19.43-25.5-34.65-44.42-44.56c-17.73-9.28-37.43-14.22-57.28-17.02
				c-24.47-17.69-51.04-32.01-79.68-39.7c-39.45-10.6-83.26-7.59-118.18,14.51c10.16,1.27,20.31,2.54,30.47,3.8
				c-38.46,6.96-76.26,22.99-104.72,51.17c-28.46,28.18-46.51,69.51-42.54,110.49c3.29-10.95,6.57-21.89,9.86-32.84
				c-1.41,57.53,6.24,115.31,22.56,170.22c16.29-53.42,53.82-99.22,101.54-123.92c-3.52,10.57-9.4,20.26-17.02,28.06
				c78.18-9.42,151.6-54.36,199.59-120.01c1.3,3.18,2.65,6.34,4.01,9.48c13.75,31.93,28.09,63.97,48.83,91.87
				c1.27-10.64,2.54-21.29,3.82-31.93c8.09,33.22,16.17,66.45,24.26,99.67c16.59-35.19,26-73.74,27.49-112.62
				C708.24,244.37,706.93,224.52,698.92,206.98z"/>
			<path class="st2" d="M679.87,468.54c-1.96,25.13-15.36,47.72-28.42,69.28c-9.54,15.75-19.77,32.19-35.83,41.2
				c-12.92,7.25-52.72,19.5-74.39,7.02c-19.66-11.32-21.7-8.62-21.7-8.62h-30.5c0,0,0.58-3.34-21.7,8.62
				c-22.04,11.82-61.47,0.22-74.39-7.02c-16.06-9.01-26.29-25.45-35.83-41.2c-13.06-21.56-26.46-44.15-28.42-69.28
				c-8.52,53.64-10.61,135.27,4.42,161.96c0.74-2.62,1.47-5.24,2.21-7.86c2.7,17.92,11.38,34.89,24.33,47.58
				c0-2.99,0-5.97,0.01-8.96c9.81,17.34,17.9,34.51,36.3,47.22c-0.18-3.75-0.37-7.5-0.55-11.25c8.75,14.68,20.13,25.58,36.63,36.82
				c-0.04-1.82-0.07-3.64-0.11-5.47c6.37,8.8,14.52,18.56,26.8,25.61c0.78-2.27-0.56-4.35,0.22-6.62
				c10.29,13.18,45.34,12.18,45.34,12.18s35.04,1,45.34-12.18c0.78,2.27-0.56,4.35,0.22,6.62c12.28-7.05,20.42-16.81,26.8-25.61
				c-0.04,1.82-0.08,3.64-0.11,5.47c16.5-11.24,27.88-22.14,36.63-36.82c-0.18,3.75-0.37,7.5-0.55,11.25
				c18.4-12.71,26.5-29.88,36.3-47.22c0,2.99,0,5.97,0.01,8.96c12.95-12.68,21.63-29.65,24.33-47.58c0.74,2.62,1.47,5.24,2.21,7.86
				C690.48,603.81,688.39,522.18,679.87,468.54z"/>
		</g>
		<g>
			<path class="st5" d="M283.19,325.61c45.13-16.47,111.31-34.8,192.78-37.66c103.19-3.63,185.79,19.14,236.13,37.4
				c0.03-2.44,0.06-6.07,0.03-10.47c0,0,0.64-33.93-3.61-61.78c-5.76-37.73-11.37-74.49-36.72-104.51
				c-31.84-37.71-78.02-44.88-126.47-52.41c-27.64-4.29-77.64-8.23-135.26,9.1c-18.16,5.46-41.23,12.4-61.2,26.36
				C274.2,183.87,281.81,307.06,283.19,325.61z"/>
		</g>
		<path class="st1" d="M500,13.45c65.69,0,129.41,12.86,189.38,38.23c28.83,12.19,56.63,27.29,82.64,44.86
			c25.77,17.41,50,37.4,72.02,59.42c22.02,22.02,42.01,46.25,59.42,72.02c17.57,26.01,32.66,53.82,44.86,82.64
			c25.37,59.98,38.23,123.69,38.23,189.38c0,55.43-9.25,109.8-27.48,161.6c-17.63,50.06-43.26,96.71-76.19,138.64
			c-22.23,28.32-47.66,54.22-75.56,76.98c-28.06,22.89-58.69,42.65-91.02,58.73c-32.91,16.36-67.71,28.96-103.43,37.45
			c-36.76,8.73-74.73,13.16-112.88,13.16c-35.73,0-71.37-3.89-105.92-11.56c-33.62-7.46-66.53-18.57-97.81-33.02
			c-30.72-14.18-60.08-31.68-87.26-52c-26.98-20.16-51.95-43.21-74.23-68.5c-38.32-43.5-68.26-92.84-88.99-146.68
			C24.33,619.07,13.45,560.26,13.45,500c0-65.69,12.86-129.41,38.23-189.38c12.19-28.83,27.29-56.63,44.86-82.64
			c17.41-25.77,37.4-50,59.42-72.02c22.02-22.02,46.25-42.01,72.02-59.42c26.01-17.57,53.82-32.66,82.64-44.86
			C370.59,26.31,434.31,13.45,500,13.45 M500,0C223.86,0,0,223.86,0,500c0,126.63,47.08,242.26,124.69,330.36
			C216.3,934.37,350.49,1000,500,1000c159.71,0,301.93-74.89,393.46-191.46C960.2,723.56,1000,616.43,1000,500
			C1000,223.86,776.14,0,500,0L500,0z"/>
	</g>
</g>
</svg>
