<?xml version="1.0" encoding="utf-8"?>
<!-- Generator: Adobe Illustrator 24.0.0, SVG Export Plug-In . SVG Version: 6.00 Build 0)  -->
<svg version="1.1" id="Layer_1" xmlns="http://www.w3.org/2000/svg" xmlns:xlink="http://www.w3.org/1999/xlink" x="0px" y="0px"
	 viewBox="0 0 2000 2000" style="enable-background:new 0 0 2000 2000;" xml:space="preserve">
<style type="text/css">
	.st0{fill:#FFFFFF;}
	.st1{fill:#6C0092;}
	.st2{fill:none;}
	.st3{fill:#610089;}
</style>
<g>
	<g>
		<circle class="st0" cx="1000" cy="1000" r="1000"/>
		<path class="st0" d="M1297.01,822.77c-3.75,85.14-10.45,237.55-120.6,359.73c-34.25,38-98.06,108.77-189.8,109.64
			c-97.41,0.91-165.75-77.46-202.85-120.36c-107.15-123.89-116.24-272.19-119.88-349.01c-5.39-113.66-12.28-259.08,92.5-359.05
			c86.93-82.94,199.99-86.19,224.06-86.34c23.85-0.14,140.33,1.67,228.17,86.34C1308.67,560.14,1302.47,698.57,1297.01,822.77z"/>
		<path class="st1" d="M1531.88,1079.23c-25.21-88.35-76.3-267.52-103.23-437.54c-2.47-15.53-7.44-48.12-20.56-90.45
			c-15.71-50.65-47.62-153.63-137.72-236.38c-34.98-32.13-142.01-119.35-299.1-115.12c-20.47,0.56-157.75,6.27-268.26,107.91
			c0,0-89.75,82.56-134.19,228.89c-6.13,20.15-13.36,46.25-13.36,46.25c-7.24,26.1-12.26,45.99-14.23,53.84
			c-58.59,233.3-87.9,349.94-104.31,419.29c-53.66,226.67-138.32,405.68-200.37,589.96c26.64,31.46,55.2,61.26,85.48,89.17
			c9.11,8.44,18.38,16.67,27.79,24.7c27.93,23.95,57.19,46.36,87.67,67.12c14.11,9.65,28.49,18.91,43.12,27.82
			c9.63,5.84,19.36,11.55,29.19,17.07c21.68,12.24,43.87,23.68,66.51,34.28c9.56,4.48,19.2,8.82,28.94,13
			c12.87,5.54,25.89,10.83,39.05,15.83c5.59,2.13,11.22,4.21,16.87,6.26c105.81,38.1,219.91,58.86,338.84,58.86
			c128.26,0,250.91-24.15,363.58-68.16c7.33-2.85,14.63-5.81,21.89-8.84c38.56-16.12,75.89-34.58,111.82-55.22
			c38.89-22.34,76.14-47.22,111.51-74.4c10.29-7.91,20.42-16.01,30.39-24.31c39.33-32.72,76.11-68.4,109.97-106.69
			C1689.45,1501.29,1598.38,1312.38,1531.88,1079.23z M1232.61,831.96c-10.06,3.3-29.24,9.48-53.53,12.62
			c-57.3,7.39-82.4-10.04-159.11-15.2c-25.91-1.74-44.84-1.22-62.91-0.72c-84.89,2.35-144.39,17.48-186.6,11.21
			c-16.78-2.51-33.04-6.56-45.13-10s-19.97-6.26-19.97-6.26c-16.66-6.54-30.84-14.11-42.42-21.32c-0.09-0.07-0.2-0.13-0.3-0.2
			c-52.17-20.37-58.43-44.31-1.33-73.11c58.05-29.9,162.21-72.93,297.9-75.35c163.97-2.9,287.37,55,347.31,89.05l-6.92-3.85
			c40.03,23.61,32.42,44.37-1.94,63.52C1280.82,812.38,1259.05,823.3,1232.61,831.96z"/>
		<path class="st2" d="M2000,1000c0,254.06-94.73,485.98-250.83,662.38c-33.87,38.29-70.64,73.97-109.97,106.69
			c-9.97,8.3-20.1,16.4-30.39,24.31c-35.37,27.18-72.63,52.06-111.51,74.4c-35.93,20.64-73.25,39.1-111.82,55.22
			c-7.26,3.03-14.56,5.99-21.89,8.84C1250.91,1975.85,1128.26,2000,1000,2000c-118.94,0-233.03-20.76-338.84-58.86
			c-5.65-2.04-11.28-4.12-16.87-6.26c-13.16-5-26.18-10.29-39.05-15.83c-9.73-4.18-19.38-8.52-28.94-13
			c-22.64-10.6-44.84-22.03-66.51-34.28c-9.82-5.52-19.56-11.22-29.19-17.07c-14.63-8.91-29.01-18.18-43.12-27.82
			c-30.48-20.76-59.74-43.17-87.67-67.12c-9.41-8.03-18.68-16.26-27.79-24.71c-30.28-27.91-58.84-57.71-85.48-89.17
			C88.98,1471.64,0,1246.21,0,1000C0,447.72,447.72,0,1000,0S2000,447.72,2000,1000z"/>
		<path class="st0" d="M1232.61,831.96c-10.06,3.3-29.24,9.48-53.53,12.62c-57.3,7.39-82.4-10.04-159.11-15.2
			c-25.91-1.74-44.84-1.22-62.91-0.72c-84.89,2.35-144.39,17.48-186.6,11.21c-16.78-2.51-33.04-6.56-45.13-10
			s-19.97-6.26-19.97-6.26c-16.66-6.54-30.84-14.11-42.42-21.32c-0.09-0.07-0.2-0.13-0.3-0.2c-0.45-24.36-0.88-48.75-1.33-73.11
			c58.05-29.9,162.21-72.93,297.9-75.35c163.97-2.9,287.37,55,347.31,89.05l-6.92-3.85"/>
	</g>
	<path class="st1" d="M1330.58,833.33l-29.68,3.69c-5.83,0.73-11.19-3.45-11.91-9.28l-14.7-118.11c-0.72-5.83,3.45-11.19,9.28-11.91
		l29.68-3.69c5.83-0.72,11.19,3.45,11.91,9.28l14.7,118.11C1340.58,827.25,1336.41,832.61,1330.58,833.33z"/>
	<path class="st1" d="M620.7,833.33l29.68,3.69c5.83,0.73,11.19-3.45,11.91-9.28l14.7-118.11c0.73-5.83-3.45-11.19-9.28-11.91
		l-29.68-3.69c-5.83-0.72-11.19,3.45-11.91,9.28l-14.7,118.11C610.7,827.25,614.87,832.61,620.7,833.33z"/>
	<path class="st1" d="M1294.51,867.36H656.8c-6.6,0-12-5.4-12-12V657.89c0-6.6,5.4-12,12-12h637.71c6.6,0,12,5.4,12,12v197.47
		C1306.51,861.96,1301.11,867.36,1294.51,867.36z"/>
	<path class="st0" d="M1399.47,765.79c-1.48,32.77-834.83,32.23-833.36,0C685.44,668.53,1306.51,689.03,1399.47,765.79z"/>
	<path class="st1" d="M1425.88,784.86l-74.14,28.7c-6.16,2.38-13.14-0.7-15.52-6.86l-34.51-89.15c-2.38-6.15,0.7-13.14,6.86-15.52
		l74.14-28.7c6.16-2.38,13.14,0.7,15.52,6.86l34.51,89.15C1435.12,775.49,1432.03,782.47,1425.88,784.86z"/>
	<path class="st1" d="M620.22,808.7l-70.77-8.81c-6.55-0.81-11.24-6.84-10.43-13.39l13.36-107.4c0.81-6.55,6.84-11.24,13.39-10.43
		l70.77,8.81c6.55,0.81,11.24,6.84,10.43,13.39l-13.36,107.4C632.79,804.82,626.76,809.51,620.22,808.7z"/>
	<path class="st3" d="M581.48,1029.45c-43.53,256.07-78.9,531.75-100.88,825.25c-14.63-8.91-29.01-18.18-43.12-27.82
		C473.39,1536.98,524.08,1270.32,581.48,1029.45z"/>
	<path class="st3" d="M1198.16,382.28c32.34,95.18,63.44,197.3,91.88,306.07c41.94,160.44,71.92,311.8,93.3,451.3
		c-0.41-120.07-13.78-279.37-65.82-458.53C1283.22,563.03,1239.88,463.01,1198.16,382.28z"/>
	<path class="st3" d="M752.94,398.68c-32.34,95.18-63.44,197.3-91.88,306.07c-41.94,160.44-71.92,311.8-93.3,451.3
		c0.41-120.07,13.78-279.37,65.82-458.54C667.87,579.43,711.22,479.41,752.94,398.68z"/>
	<path class="st3" d="M711.71,1057.23c-1.88,13.54-3.87,27.97-6.02,43.37c-54.43,390.51-89.19,646.6-100.45,818.46
		c-9.73-4.18-19.38-8.52-28.94-13c11.15-115.85,33.6-272.06,67.3-486.43c17.89-113.83,41.45-263.72,60.58-380.56
		c17.37-106.22,31.07-185.11,33.49-184.73C738.41,854.46,738.75,862.09,711.71,1057.23z"/>
	<path class="st3" d="M1385.47,1923c-7.26,3.03-14.56,5.99-21.89,8.84c-18.52-199.31-46.56-490.86-88.6-831.24
		c-3.41-27.61-6.49-52.15-9.29-73.99c-19.38-152.12-24.19-172.02-22.68-172.27c2.46-0.41,14.5,53.34,30.89,144.84
		C1308.31,1191.22,1361.76,1549.61,1385.47,1923z"/>
	<path class="st3" d="M661.16,1941.14c-5.65-2.04-11.28-4.12-16.87-6.26c-1.52-98.23,18.36-168.54,22.02-168.18
		C670.03,1767.07,650.42,1840.38,661.16,1941.14z"/>
	<path class="st3" d="M442.09,1330.59c-33.72,131.68-65.38,275.02-92.28,429.17c-9.41-8.03-18.68-16.26-27.79-24.71
		C354.67,1581.11,397.74,1445.66,442.09,1330.59z"/>
	<path class="st3" d="M1639.19,1769.07c-9.97,8.3-20.1,16.4-30.39,24.31c-29.81-189.32-67.18-363.46-107.52-520.92
		c47.37,122.88,93.26,269.01,126.57,436.1C1631.92,1728.91,1635.7,1749.08,1639.19,1769.07z"/>
	<path class="st0" d="M1000,26.89c131.38,0,258.82,25.73,378.77,76.46c57.65,24.39,113.26,54.57,165.29,89.71
		c51.53,34.81,99.99,74.8,144.04,118.84c44.04,44.04,84.03,92.5,118.84,144.04c35.14,52.02,65.33,107.63,89.71,165.29
		c50.74,119.95,76.46,247.39,76.46,378.77s-25.73,258.82-76.46,378.77c-24.39,57.65-54.57,113.26-89.71,165.29
		c-34.82,51.53-74.8,99.99-118.84,144.04c-44.04,44.04-92.5,84.03-144.04,118.84c-52.02,35.14-107.63,65.33-165.29,89.71
		c-119.95,50.74-247.39,76.46-378.77,76.46s-258.82-25.72-378.77-76.46c-57.65-24.39-113.26-54.57-165.29-89.71
		c-51.53-34.81-99.99-74.8-144.04-118.84c-44.04-44.04-84.03-92.5-118.84-144.04c-35.14-52.02-65.33-107.63-89.71-165.29
		C52.62,1258.81,26.9,1131.38,26.9,1000s25.72-258.82,76.46-378.77c24.39-57.65,54.57-113.26,89.71-165.29
		c34.81-51.53,74.8-99.99,118.84-144.04c44.04-44.04,92.5-84.03,144.04-118.84c52.02-35.14,107.63-65.33,165.29-89.71
		C741.18,52.62,868.62,26.89,1000,26.89 M1000,0C447.72,0,0,447.72,0,1000s447.71,1000,1000,1000s1000-447.71,1000-1000
		S1552.28,0,1000,0L1000,0z"/>
</g>
</svg>
